<mxfile host="65bd71144e">
    <diagram id="mCsChZucjfeU-SwiBfem" name="General">
        <mxGraphModel dx="1278" dy="922" grid="1" gridSize="10" guides="1" tooltips="1" connect="1" arrows="1" fold="1" page="1" pageScale="1" pageWidth="827" pageHeight="1169" math="0" shadow="0">
            <root>
                <mxCell id="0"/>
                <mxCell id="1" parent="0"/>
                <mxCell id="65" style="edgeStyle=none;html=1;entryX=0;entryY=0.5;entryDx=0;entryDy=0;" edge="1" parent="1" source="2" target="63">
                    <mxGeometry relative="1" as="geometry"/>
                </mxCell>
                <mxCell id="2" value="System" style="rounded=0;whiteSpace=wrap;html=1;" parent="1" vertex="1">
                    <mxGeometry x="10" y="600" width="50" height="80" as="geometry"/>
                </mxCell>
                <mxCell id="32" style="edgeStyle=none;html=1;entryX=0;entryY=0.5;entryDx=0;entryDy=0;" parent="1" source="4" target="11" edge="1">
                    <mxGeometry relative="1" as="geometry"/>
                </mxCell>
                <mxCell id="33" style="edgeStyle=none;html=1;exitX=0;exitY=1;exitDx=0;exitDy=0;entryX=1;entryY=0;entryDx=0;entryDy=0;" parent="1" source="4" target="9" edge="1">
                    <mxGeometry relative="1" as="geometry"/>
                </mxCell>
                <mxCell id="34" style="edgeStyle=none;html=1;exitX=0.5;exitY=1;exitDx=0;exitDy=0;entryX=0.75;entryY=0;entryDx=0;entryDy=0;" parent="1" source="4" target="8" edge="1">
                    <mxGeometry relative="1" as="geometry"/>
                </mxCell>
                <mxCell id="35" style="edgeStyle=none;html=1;exitX=1;exitY=1;exitDx=0;exitDy=0;entryX=0.25;entryY=0;entryDx=0;entryDy=0;" parent="1" source="4" target="10" edge="1">
                    <mxGeometry relative="1" as="geometry"/>
                </mxCell>
                <mxCell id="4" value="DAO&lt;br&gt;Data Acess Object" style="rounded=0;whiteSpace=wrap;html=1;" parent="1" vertex="1">
                    <mxGeometry x="200" y="610" width="120" height="60" as="geometry"/>
                </mxCell>
                <mxCell id="7" value="Repositório" style="shape=cylinder3;whiteSpace=wrap;html=1;boundedLbl=1;backgroundOutline=1;size=15;" parent="1" vertex="1">
                    <mxGeometry x="757" y="670" width="70" height="90" as="geometry"/>
                </mxCell>
                <mxCell id="39" style="edgeStyle=none;html=1;exitX=1;exitY=0.25;exitDx=0;exitDy=0;entryX=0;entryY=0;entryDx=0;entryDy=60;entryPerimeter=0;" parent="1" source="8" target="7" edge="1">
                    <mxGeometry relative="1" as="geometry"/>
                </mxCell>
                <mxCell id="8" value="Update" style="shape=parallelogram;perimeter=parallelogramPerimeter;whiteSpace=wrap;html=1;fixedSize=1;" parent="1" vertex="1">
                    <mxGeometry x="160" y="820" width="110" height="60" as="geometry"/>
                </mxCell>
                <mxCell id="36" style="edgeStyle=none;html=1;exitX=0.75;exitY=0;exitDx=0;exitDy=0;" parent="1" source="9" edge="1">
                    <mxGeometry relative="1" as="geometry">
                        <mxPoint x="170" y="760.4705882352941" as="targetPoint"/>
                    </mxGeometry>
                </mxCell>
                <mxCell id="40" style="edgeStyle=none;html=1;exitX=1;exitY=0.25;exitDx=0;exitDy=0;entryX=0;entryY=0;entryDx=0;entryDy=30;entryPerimeter=0;" parent="1" source="9" target="7" edge="1">
                    <mxGeometry relative="1" as="geometry"/>
                </mxCell>
                <mxCell id="9" value="Delete" style="shape=parallelogram;perimeter=parallelogramPerimeter;whiteSpace=wrap;html=1;fixedSize=1;" parent="1" vertex="1">
                    <mxGeometry x="70" y="750" width="110" height="60" as="geometry"/>
                </mxCell>
                <mxCell id="38" style="edgeStyle=none;html=1;exitX=1;exitY=0.25;exitDx=0;exitDy=0;entryX=0.145;entryY=1;entryDx=0;entryDy=-4.35;entryPerimeter=0;" parent="1" source="10" target="7" edge="1">
                    <mxGeometry relative="1" as="geometry"/>
                </mxCell>
                <mxCell id="10" value="Read" style="shape=parallelogram;perimeter=parallelogramPerimeter;whiteSpace=wrap;html=1;fixedSize=1;" parent="1" vertex="1">
                    <mxGeometry x="270" y="880" width="110" height="60" as="geometry"/>
                </mxCell>
                <mxCell id="37" style="edgeStyle=none;html=1;exitX=1;exitY=1;exitDx=0;exitDy=0;entryX=0.5;entryY=0;entryDx=0;entryDy=0;entryPerimeter=0;" parent="1" source="11" target="7" edge="1">
                    <mxGeometry relative="1" as="geometry"/>
                </mxCell>
                <mxCell id="61" style="edgeStyle=none;html=1;exitX=0.25;exitY=0;exitDx=0;exitDy=0;entryX=0.25;entryY=1;entryDx=0;entryDy=0;" parent="1" source="11" target="45" edge="1">
                    <mxGeometry relative="1" as="geometry"/>
                </mxCell>
                <mxCell id="11" value="Create" style="shape=parallelogram;perimeter=parallelogramPerimeter;whiteSpace=wrap;html=1;fixedSize=1;" parent="1" vertex="1">
                    <mxGeometry x="340" y="610" width="120" height="60" as="geometry"/>
                </mxCell>
                <mxCell id="17" value="API" style="shape=hexagon;perimeter=hexagonPerimeter2;whiteSpace=wrap;html=1;fixedSize=1;" parent="1" vertex="1">
                    <mxGeometry x="414" y="180" width="60" height="40" as="geometry"/>
                </mxCell>
                <mxCell id="56" value="" style="edgeStyle=none;html=1;" parent="1" source="44" target="55" edge="1">
                    <mxGeometry relative="1" as="geometry"/>
                </mxCell>
                <mxCell id="58" value="" style="edgeStyle=none;html=1;" parent="1" source="44" target="57" edge="1">
                    <mxGeometry relative="1" as="geometry"/>
                </mxCell>
                <mxCell id="44" value="Pessoa" style="rounded=1;whiteSpace=wrap;html=1;" parent="1" vertex="1">
                    <mxGeometry x="550" y="290" width="100" height="50" as="geometry"/>
                </mxCell>
                <mxCell id="60" style="edgeStyle=none;html=1;exitX=0.75;exitY=0;exitDx=0;exitDy=0;entryX=0.158;entryY=1.004;entryDx=0;entryDy=0;entryPerimeter=0;" parent="1" source="45" target="47" edge="1">
                    <mxGeometry relative="1" as="geometry"/>
                </mxCell>
                <mxCell id="62" style="edgeStyle=none;html=1;exitX=1;exitY=0.25;exitDx=0;exitDy=0;entryX=0;entryY=1;entryDx=0;entryDy=0;" parent="1" source="45" target="44" edge="1">
                    <mxGeometry relative="1" as="geometry"/>
                </mxCell>
                <mxCell id="45" value="Empresa" style="rounded=0;whiteSpace=wrap;html=1;" parent="1" vertex="1">
                    <mxGeometry x="340" y="410" width="120" height="60" as="geometry"/>
                </mxCell>
                <mxCell id="48" style="edgeStyle=none;html=1;exitX=0.5;exitY=0;exitDx=0;exitDy=0;" parent="1" source="46" edge="1">
                    <mxGeometry relative="1" as="geometry">
                        <mxPoint x="600" y="290" as="targetPoint"/>
                    </mxGeometry>
                </mxCell>
                <mxCell id="54" style="edgeStyle=none;html=1;exitX=0;exitY=0.75;exitDx=0;exitDy=0;entryX=1;entryY=0.5;entryDx=0;entryDy=0;" parent="1" source="46" target="17" edge="1">
                    <mxGeometry relative="1" as="geometry"/>
                </mxCell>
                <mxCell id="46" value="Endereço" style="rounded=1;whiteSpace=wrap;html=1;" parent="1" vertex="1">
                    <mxGeometry x="550" y="180" width="100" height="45" as="geometry"/>
                </mxCell>
                <mxCell id="52" style="edgeStyle=none;html=1;exitX=0.5;exitY=1;exitDx=0;exitDy=0;" parent="1" source="47" edge="1">
                    <mxGeometry relative="1" as="geometry">
                        <mxPoint x="444" y="220" as="targetPoint"/>
                    </mxGeometry>
                </mxCell>
                <mxCell id="47" value="Endereço" style="rounded=1;whiteSpace=wrap;html=1;" parent="1" vertex="1">
                    <mxGeometry x="430" y="290" width="100" height="50" as="geometry"/>
                </mxCell>
                <mxCell id="55" value="Pessoa&lt;br&gt;Física" style="rounded=1;whiteSpace=wrap;html=1;" parent="1" vertex="1">
                    <mxGeometry x="690" y="240" width="100" height="50" as="geometry"/>
                </mxCell>
                <mxCell id="57" value="Pessoa&lt;br&gt;Jurídica" style="whiteSpace=wrap;html=1;rounded=1;" parent="1" vertex="1">
                    <mxGeometry x="690" y="330" width="100" height="55" as="geometry"/>
                </mxCell>
                <mxCell id="66" style="edgeStyle=none;html=1;entryX=0;entryY=0.5;entryDx=0;entryDy=0;" edge="1" parent="1" source="63" target="4">
                    <mxGeometry relative="1" as="geometry"/>
                </mxCell>
                <mxCell id="63" value="UI" style="rounded=0;whiteSpace=wrap;html=1;" vertex="1" parent="1">
                    <mxGeometry x="100" y="550" width="70" height="60" as="geometry"/>
                </mxCell>
            </root>
        </mxGraphModel>
    </diagram>
    <diagram id="HI1zIEoVIivr7F-wKZme" name="UI">
        <mxGraphModel dx="2481" dy="596" grid="1" gridSize="10" guides="1" tooltips="1" connect="1" arrows="1" fold="1" page="1" pageScale="1" pageWidth="827" pageHeight="1169" math="0" shadow="0">
            <root>
                <mxCell id="Q77n228zsCQOTDn2W2Tf-0"/>
                <mxCell id="Q77n228zsCQOTDn2W2Tf-1" parent="Q77n228zsCQOTDn2W2Tf-0"/>
                <mxCell id="Q77n228zsCQOTDn2W2Tf-2" value="UI" style="swimlane;childLayout=stackLayout;resizeParent=1;resizeParentMax=0;horizontal=1;startSize=20;horizontalStack=0;" vertex="1" parent="Q77n228zsCQOTDn2W2Tf-1">
                    <mxGeometry x="-1630" y="360" width="766" height="660" as="geometry"/>
                </mxCell>
                <mxCell id="Q77n228zsCQOTDn2W2Tf-3" value="Menu Principal" style="swimlane;startSize=20;horizontal=0;" vertex="1" parent="Q77n228zsCQOTDn2W2Tf-2">
                    <mxGeometry y="20" width="766" height="140" as="geometry">
                        <mxRectangle y="20" width="766" height="20" as="alternateBounds"/>
                    </mxGeometry>
                </mxCell>
                <mxCell id="Q77n228zsCQOTDn2W2Tf-28" value="&lt;br&gt;&lt;br&gt;Obtem escolha do Usuário" style="shape=manualInput;whiteSpace=wrap;html=1;" vertex="1" parent="Q77n228zsCQOTDn2W2Tf-3">
                    <mxGeometry x="46" y="40" width="80" height="80" as="geometry"/>
                </mxCell>
                <mxCell id="Q77n228zsCQOTDn2W2Tf-20" value="DAO - Data Acess Object" style="swimlane;childLayout=stackLayout;resizeParent=1;resizeParentMax=0;horizontal=1;startSize=20;horizontalStack=0;" vertex="1" collapsed="1" parent="Q77n228zsCQOTDn2W2Tf-3">
                    <mxGeometry x="190" y="20" width="170" height="20" as="geometry">
                        <mxRectangle x="190" y="20" width="530" height="100" as="alternateBounds"/>
                    </mxGeometry>
                </mxCell>
                <mxCell id="Q77n228zsCQOTDn2W2Tf-21" value="Create" style="swimlane;startSize=20;horizontal=0;" vertex="1" collapsed="1" parent="Q77n228zsCQOTDn2W2Tf-20">
                    <mxGeometry y="20" width="170" height="20" as="geometry">
                        <mxRectangle y="20" width="530" height="120" as="alternateBounds"/>
                    </mxGeometry>
                </mxCell>
                <mxCell id="Q77n228zsCQOTDn2W2Tf-22" value="Read" style="swimlane;startSize=20;horizontal=0;" vertex="1" collapsed="1" parent="Q77n228zsCQOTDn2W2Tf-20">
                    <mxGeometry y="40" width="170" height="20" as="geometry">
                        <mxRectangle y="140" width="530" height="120" as="alternateBounds"/>
                    </mxGeometry>
                </mxCell>
                <mxCell id="Q77n228zsCQOTDn2W2Tf-23" value="Update" style="swimlane;startSize=20;horizontal=0;" vertex="1" collapsed="1" parent="Q77n228zsCQOTDn2W2Tf-20">
                    <mxGeometry y="60" width="170" height="20" as="geometry">
                        <mxRectangle y="260" width="530" height="120" as="alternateBounds"/>
                    </mxGeometry>
                </mxCell>
                <mxCell id="Q77n228zsCQOTDn2W2Tf-25" value="Delete" style="swimlane;startSize=20;horizontal=0;" vertex="1" collapsed="1" parent="Q77n228zsCQOTDn2W2Tf-20">
                    <mxGeometry y="80" width="170" height="20" as="geometry">
                        <mxRectangle y="80" width="530" height="120" as="alternateBounds"/>
                    </mxGeometry>
                </mxCell>
                <mxCell id="Q77n228zsCQOTDn2W2Tf-4" value="Create" style="swimlane;startSize=20;horizontal=0;" vertex="1" parent="Q77n228zsCQOTDn2W2Tf-2">
                    <mxGeometry y="160" width="766" height="120" as="geometry">
                        <mxRectangle y="160" width="766" height="20" as="alternateBounds"/>
                    </mxGeometry>
                </mxCell>
                <mxCell id="F7g10t35Xjciyd1vekC1-0" value="&lt;br&gt;&lt;br&gt;Empresa" style="shape=manualInput;whiteSpace=wrap;html=1;" vertex="1" parent="Q77n228zsCQOTDn2W2Tf-4">
                    <mxGeometry x="46" y="20" width="80" height="80" as="geometry"/>
                </mxCell>
                <mxCell id="IcVT64RcNfGlBjhJ03ca-15" value="Read" style="swimlane;startSize=20;horizontal=0;" vertex="1" collapsed="1" parent="Q77n228zsCQOTDn2W2Tf-2">
                    <mxGeometry y="280" width="766" height="20" as="geometry">
                        <mxRectangle y="60" width="766" height="120" as="alternateBounds"/>
                    </mxGeometry>
                </mxCell>
                <mxCell id="IcVT64RcNfGlBjhJ03ca-16" value="&lt;br&gt;&lt;br&gt;Empresa" style="shape=manualInput;whiteSpace=wrap;html=1;" vertex="1" parent="IcVT64RcNfGlBjhJ03ca-15">
                    <mxGeometry x="46" y="20" width="80" height="80" as="geometry"/>
                </mxCell>
                <mxCell id="IcVT64RcNfGlBjhJ03ca-18" value="Update" style="swimlane;startSize=20;horizontal=0;" vertex="1" parent="Q77n228zsCQOTDn2W2Tf-2">
                    <mxGeometry y="300" width="766" height="120" as="geometry">
                        <mxRectangle y="80" width="766" height="20" as="alternateBounds"/>
                    </mxGeometry>
                </mxCell>
                <mxCell id="IcVT64RcNfGlBjhJ03ca-19" value="&lt;br&gt;&lt;br&gt;Empresa" style="shape=manualInput;whiteSpace=wrap;html=1;" vertex="1" parent="IcVT64RcNfGlBjhJ03ca-18">
                    <mxGeometry x="46" y="20" width="80" height="80" as="geometry"/>
                </mxCell>
                <mxCell id="IcVT64RcNfGlBjhJ03ca-34" value="Delete" style="swimlane;startSize=20;horizontal=0;" vertex="1" parent="Q77n228zsCQOTDn2W2Tf-2">
                    <mxGeometry y="420" width="766" height="120" as="geometry">
                        <mxRectangle y="100" width="766" height="20" as="alternateBounds"/>
                    </mxGeometry>
                </mxCell>
                <mxCell id="IcVT64RcNfGlBjhJ03ca-35" value="&lt;br&gt;&lt;br&gt;Empresa" style="shape=manualInput;whiteSpace=wrap;html=1;" vertex="1" parent="IcVT64RcNfGlBjhJ03ca-34">
                    <mxGeometry x="46" y="20" width="80" height="80" as="geometry"/>
                </mxCell>
                <mxCell id="IcVT64RcNfGlBjhJ03ca-36" value="API" style="swimlane;startSize=20;horizontal=0;" vertex="1" parent="Q77n228zsCQOTDn2W2Tf-2">
                    <mxGeometry y="540" width="766" height="120" as="geometry">
                        <mxRectangle y="540" width="766" height="20" as="alternateBounds"/>
                    </mxGeometry>
                </mxCell>
                <mxCell id="IcVT64RcNfGlBjhJ03ca-37" value="&lt;br&gt;&lt;br&gt;CEP" style="shape=manualInput;whiteSpace=wrap;html=1;" vertex="1" parent="IcVT64RcNfGlBjhJ03ca-36">
                    <mxGeometry x="46" y="20" width="80" height="80" as="geometry"/>
                </mxCell>
            </root>
        </mxGraphModel>
    </diagram>
    <diagram id="2ym3KqeKsuU3S1HkPKXO" name="Model">
        <mxGraphModel dx="703" dy="507" grid="1" gridSize="10" guides="1" tooltips="1" connect="1" arrows="1" fold="1" page="1" pageScale="1" pageWidth="827" pageHeight="1169" math="0" shadow="0">
            <root>
                <mxCell id="k_ggrDLvZIL1aBp-WwoG-0"/>
                <mxCell id="k_ggrDLvZIL1aBp-WwoG-1" parent="k_ggrDLvZIL1aBp-WwoG-0"/>
            </root>
        </mxGraphModel>
    </diagram>
    <diagram id="zyZ0Yz2BaPDK0I_nGoUe" name="Repository">
        <mxGraphModel dx="703" dy="507" grid="1" gridSize="10" guides="1" tooltips="1" connect="1" arrows="1" fold="1" page="1" pageScale="1" pageWidth="827" pageHeight="1169" math="0" shadow="0">
            <root>
                <mxCell id="fgMpC2w9bVPkRa837eUs-0"/>
                <mxCell id="fgMpC2w9bVPkRa837eUs-1" parent="fgMpC2w9bVPkRa837eUs-0"/>
            </root>
        </mxGraphModel>
    </diagram>
</mxfile>